<?xml version="1.0" encoding="utf-8"?>
<!-- Generator: Adobe Illustrator 20.0.0, SVG Export Plug-In . SVG Version: 6.00 Build 0)  -->
<svg version="1.1" id="Layer_1" xmlns="http://www.w3.org/2000/svg" xmlns:xlink="http://www.w3.org/1999/xlink" x="0px" y="0px"
	 viewBox="0 0 100 80.8" style="enable-background:new 0 0 100 80.8;" xml:space="preserve">
<style type="text/css">
	.st0{fill:#EF4123;}
</style>
<path class="st0" d="M70.5,27c-0.4-8.7-6.1-22-11.3-26.3c-1.8-1.5-7.1-0.3-7.3,3.8c-0.1,1.1,0.4,2.1,1.2,2.7
	c8,6.1,13.6,25.2,8.5,37.3c-2.7,6.5-7.7,11.7-14.7,11.3c-4.5-0.2-7.8-4-6.7-8.8c1.1-5,8.5-13.5,15.7-14.4c2.1-0.3,4.1-2.4,4.7-4.4
	c0.7-2.1-0.6-4.1-2.8-3.9C46,25.7,37.4,36.9,34.7,46.5c-2.3,8.4,1,15.6,8,16.7c10.8,1.3,17.2-4.7,22.4-12.6
	C69.5,43.9,70.9,35.4,70.5,27"/>
<path class="st0" d="M40.4,80.8c-6.5,0-12.9-1.7-18.2-4.9c-5.9-3.6-9.9-8.7-11.7-14.8c-0.4-1.4-0.1-2.9,0.7-4
	c0.6-0.8,1.5-1.3,2.4-1.3h0.1c0.7,0,2.7,0,3.5,2.7c0.1,0.2,2.6,16.2,25.6,16.3c11.9,0,22-3.9,45.4-15.4c0.2-0.1,0.9-0.5,1.7-0.5
	c1.1,0,1.8,0.2,2.3,1.3c0.7,1.6-0.3,3.2-1.9,3.9c-0.8,0.3-4.7,2.2-6.7,3.2C72.8,72.6,56.4,80.8,40.4,80.8"/>
<path class="st0" d="M0.4,56.4c-1.9,3.5,3.4,6.2,4.6,3.1c3.4-9.2,9.7-10.1,16.1-11c2.3-0.3,1.8-5.2-1.3-4.7
	C13.4,44.7,5.8,46.3,0.4,56.4"/>
<path class="st0" d="M100,57.4c0-1.6-1.3-2.9-2.9-2.9c-1.6,0-2.9,1.3-2.9,2.9c0,1.6,1.3,2.9,2.9,2.9C98.7,60.3,100,59,100,57.4"/>
</svg>
